HIERARCHY
ROOT root     
{
	OFFSET 0.0000 0.0000 0.0000
	CHANNELS 6 Xposition Yposition Zposition Zrotation Yrotation Xrotation
	JOINT pelvis   
	{
		OFFSET 0.0000 0.0000 0.0000
		CHANNELS 3 Zrotation Yrotation Xrotation
		JOINT thorax   
		{
			OFFSET 0.0000 23.0750 -5.0000
			CHANNELS 3 Zrotation Yrotation Xrotation
			JOINT rclavicle
			{
				OFFSET 0.0000 28.0009 0.0000
				CHANNELS 3 Zrotation Yrotation Xrotation
				JOINT rhumerus 
				{
					OFFSET -18.5725 5.5939 0.0000
					CHANNELS 3 Zrotation Yrotation Xrotation
					JOINT rradius  
					{
						OFFSET -24.8459 0.0000 0.0000
						CHANNELS 3 Zrotation Yrotation Xrotation
						JOINT rhand    
						{
							OFFSET -24.5477 0.0000 0.0000
							CHANNELS 3 Zrotation Yrotation Xrotation
							End Site
							{
								OFFSET -8.1826 0.0000 0.0000
							}
						}
					}
				}
			}
			JOINT lclavicle
			{
				OFFSET 0.0000 28.0009 0.0000
				CHANNELS 3 Zrotation Yrotation Xrotation
				JOINT lhumerus 
				{
					OFFSET 18.5725 5.5939 0.0000
					CHANNELS 3 Zrotation Yrotation Xrotation
					JOINT lradius  
					{
						OFFSET 24.8459 0.0000 0.0000
						CHANNELS 3 Zrotation Yrotation Xrotation
						JOINT lhand    
						{
							OFFSET 24.5477 0.0000 0.0000
							CHANNELS 3 Zrotation Yrotation Xrotation
							End Site
							{
								OFFSET 8.1826 0.0000 0.0000
							}
						}
					}
				}
			}
			JOINT head     
			{
				OFFSET 0.0000 35.2030 0.0000
				CHANNELS 3 Zrotation Yrotation Xrotation
				End Site
				{
					OFFSET 0.0000 11.7343 0.0000
				}
			}
		}
		JOINT rfemur   
		{
			OFFSET -8.2817 0.0000 0.0000
			CHANNELS 3 Zrotation Yrotation Xrotation
			JOINT rtibia   
			{
				OFFSET 0.0000 -43.3627 0.0000
				CHANNELS 3 Zrotation Yrotation Xrotation
				JOINT rfoot    
				{
					OFFSET 0.0000 -38.2947 0.0000
					CHANNELS 3 Zrotation Yrotation Xrotation
					JOINT rtoes    
					{
						OFFSET 0.0000 0.0000 16.6054
						CHANNELS 3 Zrotation Yrotation Xrotation
						End Site
						{
							OFFSET 0.0000 0.0000 5.5351
						}
					}
				}
			}
		}
		JOINT lfemur   
		{
			OFFSET 8.2817 0.0000 0.0000
			CHANNELS 3 Zrotation Yrotation Xrotation
			JOINT ltibia   
			{
				OFFSET 0.0000 -43.3627 0.0000
				CHANNELS 3 Zrotation Yrotation Xrotation
				JOINT lfoot    
				{
					OFFSET 0.0000 -38.2947 0.0000
					CHANNELS 3 Zrotation Yrotation Xrotation
					JOINT ltoes    
					{
						OFFSET 0.0000 0.0000 16.6054
						CHANNELS 3 Zrotation Yrotation Xrotation
						End Site
						{
							OFFSET 0.0000 0.0000 5.5351
						}
					}
				}
			}
		}
	}
}
MOTION
Frames: 11
Frame Time: .0333333
-17.161 76.406 -4.0478 -145.471 76.5693 -128.401 0 -0 0 5.2843 -12.5667 22.3066 21.4541 -11.5419 1.92904e-05 57.1504 -23.6521 0.221757 -1.78247e-06 82.6949 -1.56859e-06 -9.92106 2.37669 -0.206301 -16.9751 11.6606 6.13001e-06 -46.1678 -2.69187 5.32977 180 -58.298 180 7.49565 0.587802 0.0384998 -1.21351 10.5404 -2.19786 9.72614 -6.96413 -57.3969 -0 -0 38.9349 -9.41658e-05 11.9418 14.0709 2.94349 2.81391e-05 -53.3182 -0.630639 7.13823 -20.4476 -0 -0 65.9412 -2.6694e-05 8.47507 -12.1267 -1.79277 1.57206e-05 -54.8665 
-15.892 76.073 -4.1408 -146.41 75.9774 -129.66 0 -0 0 5.58014 -12.7764 22.4258 21.4985 -11.3785 -3.75418e-05 57.1797 -23.5754 -0.0250292 -0 82.7589 -0 -9.69833 2.54921 -0.216297 -17.1999 11.3797 -4.64217e-05 -46.6547 -1.77297 5.63072 180 -58.6261 180 7.32243 0.407202 0.0261004 -1.27272 10.5166 -2.01692 9.64715 -7.14414 -57.5016 -0 -0 41.5802 -6.83669e-05 11.5312 12.6501 2.55835 -1.06713e-05 -49.5294 -0.191827 7.63504 -20.086 -0 -0 67.3573 -1.1417e-05 8.64639 -11.12 -1.67977 2.54006e-05 -55.4193 
-14.637 75.757 -4.2327 -147.206 75.3013 -130.791 0 -0 0 5.95142 -12.9981 22.5795 21.6289 -11.1519 -2.60577e-06 57.1294 -23.3586 -0.317721 -1.78366e-06 82.7041 -1.56979e-06 -9.52408 2.67518 -0.222897 -17.4934 11.0473 -4.06846e-05 -47.2178 -0.82992 5.91083 180 -59.1035 180 7.14374 0.192198 0.0119998 -1.30191 10.4599 -1.82597 9.72148 -7.46004 -57.5546 -0 -0 44.2137 6.58124e-06 11.1461 11.0451 2.16171 3.78278e-06 -46.1669 0.33837 8.1236 -19.7941 -0 -0 68.833 -2.43268e-06 8.87187 -9.98532 -1.55041 -1.91558e-05 -55.1469 
-13.402 75.467 -4.3202 -147.835 74.542 -131.758 0 -0 0 6.39358 -13.2233 22.7596 21.85 -10.8676 -7.23221e-06 56.9988 -22.9749 -0.645138 -0 82.5029 -0 -9.41438 2.73763 -0.225507 -17.8467 10.6799 5.70509e-05 -47.8619 0.117567 6.16689 180 -59.7581 180 6.97237 -0.0403001 -0.00249999 -1.28088 10.3645 -1.61646 9.93345 -7.87719 -57.5319 -0 -0 46.7124 -7.41044e-06 10.7835 9.33872 1.77014 -1.70197e-05 -43.5031 0.962803 8.59247 -19.5912 -0 -0 70.3511 2.47229e-08 9.14893 -8.74354 -1.40241 5.72362e-06 -53.8785 
-12.193 75.211 -4.402 -148.301 73.7097 -132.554 0 -0 0 6.89309 -13.4413 22.9556 22.1616 -10.537 4.18326e-05 56.7922 -22.407 -0.997428 -1.44974e-06 82.1402 -1.66368e-06 -9.38456 2.72205 -0.223503 -18.2477 10.2882 -5.79784e-05 -48.5922 1.05782 6.39495 -180 -60.6149 180 6.82276 -0.274406 -0.0163998 -1.1909 10.2232 -1.37929 10.2615 -8.36406 -57.4233 -0 -0 48.9973 1.43974e-06 10.4374 7.60067 1.39571 2.37709e-06 -41.6725 1.67047 9.03259 -19.4942 -0 -0 71.896 7.80694e-06 9.47595 -7.45339 -1.24039 -3.66578e-07 -51.3037 
-11.012 74.993 -4.478 -148.626 72.8284 -133.189 0 -0 0 7.43014 -13.6401 23.155 22.5581 -10.1703 -2.43083e-05 56.5212 -21.6476 -1.36642 -2.21448e-06 81.613 -1.91183e-06 -9.44821 2.61842 -0.216406 -18.6764 9.889 5.78331e-05 -49.4046 1.97086 6.59544 -180 -61.705 180 6.71167 -0.487107 -0.0285996 -1.01691 10.0307 -1.10722 10.6757 -8.88491 -57.2265 -0 -0 51.0143 3.08906e-06 10.0966 5.88706 1.04631 1.52533e-06 -40.6847 2.44089 9.43737 -19.5171 -0 -0 73.4491 3.14827e-06 9.85166 -6.18106 -1.07119 2.14217e-06 -47.3904 
-9.8636 74.815 -4.5505 -148.858 71.9159 -133.704 0 -0 0 7.97859 -13.8031 23.3464 23.0278 -9.78159 2.43609e-05 56.2031 -20.7012 -1.74803 -1.75455e-06 80.9149 -2.05737e-06 -9.61458 2.42338 -0.203798 -19.114 9.49549 -3.73177e-06 -50.2971 2.84121 6.76988 -180 -63.0526 180 6.65753 -0.658505 -0.0382993 -0.749089 9.78182 -0.795397 11.1428 -9.41359 -56.9456 -0 -0 52.744 7.35157e-06 9.74978 4.24233 0.72821 -1.96272e-06 -40.4334 3.24211 9.80395 -19.6675 -0 -0 74.9912 -4.76705e-06 10.2767 -5.00943 -0.907007 7.18672e-06 -42.1405 
-8.7477 74.675 -4.6231 -149.045 70.9981 -134.143 0 -0 0 8.50828 -13.9176 23.5186 23.554 -9.38398 6.07416e-05 55.8675 -19.5814 -2.14223 -1.59182e-06 80.07 -1.8948e-06 -9.88894 2.14027 -0.185195 -19.5402 9.1205 -1.06401e-05 -51.2562 3.65294 6.92051 -180 -64.6859 180 6.68032 -0.7692 -0.0449 -0.385003 9.47364 -0.443299 11.6257 -9.92552 -56.593 -0 -0 54.1937 -4.10579e-07 9.38587 2.69992 0.446105 1.82888e-06 -40.7417 4.03555 10.1311 -19.9503 -0 -0 76.5032 -2.11227e-06 10.7536 -3.99603 -0.758306 6.43535e-06 -35.9196 
-7.6657 74.57 -4.701 -149.241 70.1011 -134.554 0 -0 0 8.98903 -13.9711 23.6634 24.1199 -8.98663 6.21182e-05 55.5456 -18.3153 -2.55523 -0 79.0893 -0 -10.2715 1.77984 -0.160001 -19.9337 8.77345 -4.72634e-05 -52.2661 4.39393 7.04967 -180 -66.616 180 6.80036 -0.799607 -0.0474997 0.0699004 9.10667 -0.054701 12.0854 -10.4018 -56.182 -0 -0 55.3858 -3.2935e-06 8.99517 1.28476 0.2034 -1.39068e-06 -41.3964 4.77845 10.4169 -20.3619 -0 -0 77.9646 -8.21249e-07 11.2875 -3.15934 -0.6302 -4.05826e-06 -29.4018 
-6.6183 74.495 -4.79 -149.491 69.2482 -134.979 0 -0 0 9.39711 -13.9541 23.773 24.6999 -8.60016 1.25711e-05 55.2675 -16.9319 -2.99181 -2.71235e-06 78.0088 -2.86945e-06 -10.7581 1.3595 -0.127997 -20.2783 8.46288 9.65657e-05 -53.3066 5.05204 7.1626 180 -68.8556 180 7.03868 -0.734796 -0.0452006 0.600809 8.68435 0.361604 12.486 -10.83 -55.7258 -0 -0 56.3577 1.96499e-08 8.57069 0.0129003 0.00189999 1.56686e-08 -42.1828 5.42983 10.6602 -20.8957 -0 -0 79.3657 -9.82318e-06 11.8797 -2.50133 -0.525998 3.72423e-07 -23.2872 
-5.6066 74.447 -4.8961 -149.835 68.4534 -135.455 0 -0 0 9.71114 -13.8609 23.8446 25.2714 -8.22809 3.78165e-05 55.0665 -15.4706 -3.46077 -2.471e-06 76.8646 -2.62829e-06 -11.3403 0.9016 -0.0894985 -20.5652 8.19266 -2.41232e-05 -54.353 5.62098 7.26445 180 -71.3981 -180 7.41369 -0.560202 -0.0362993 1.1856 8.21456 0.793296 12.7966 -11.2035 -55.2433 -0 -0 57.1547 -9.96924e-07 8.10945 -1.108 -0.157902 7.26533e-07 -42.9237 5.95119 10.8609 -21.5455 -0 -0 80.7006 -1.08915e-05 12.5277 -2.00642 -0.445707 1.22679e-06 -18.1889 
